<?xml version="1.0" standalone="no"?>
<!DOCTYPE svg PUBLIC "-//W3C//DTD SVG 20010904//EN"
 "http://www.w3.org/TR/2001/REC-SVG-20010904/DTD/svg10.dtd">
<svg version="1.0" xmlns="http://www.w3.org/2000/svg"
 width="240.000000pt" height="240.000000pt" viewBox="0 0 240.000000 240.000000"
 preserveAspectRatio="xMidYMid meet">
<metadata>
Created by potrace 1.11, written by Peter Selinger 2001-2013
</metadata>
<g transform="translate(0.000000,240.000000) scale(0.100000,-0.100000)"
fill="#000000" stroke="none">
<path d="M875 2239 c-27 -3 -72 -4 -100 -2 -69 7 -97 -18 -148 -126 -22 -48
-54 -104 -71 -125 -26 -34 -31 -49 -32 -100 -2 -95 -56 -230 -117 -294 -28
-29 -31 -39 -33 -100 -1 -77 -46 -204 -100 -287 -25 -37 -32 -59 -30 -85 5
-60 -68 -244 -128 -322 -20 -27 -24 -44 -24 -93 0 -33 -5 -87 -11 -121 -6 -34
-9 -79 -5 -100 16 -104 112 -221 221 -272 l58 -26 680 0 680 -1 50 25 c63 31
127 96 148 152 9 24 71 223 137 443 67 220 151 497 187 615 56 184 65 221 60
266 -6 59 -36 108 -79 130 -27 14 -28 13 -28 -9 0 -21 -40 -160 -175 -602 -20
-66 -75 -246 -121 -400 -128 -423 -120 -401 -162 -427 l-36 -22 -655 -1 c-688
-1 -727 1 -775 43 -25 23 -47 77 -40 97 4 9 17 21 30 25 13 5 302 9 641 9 379
0 631 4 652 10 92 28 113 68 231 461 17 58 45 148 60 200 16 52 47 154 69 225
126 414 181 606 181 639 0 74 -66 159 -134 172 -45 8 -1016 11 -1081 3z m892
-355 c8 -20 -23 -118 -43 -139 -23 -22 -872 -23 -880 0 -8 20 24 113 47 136
18 18 41 19 444 19 382 0 426 -2 432 -16z m-114 -333 c11 -2 8 -30 -10 -88
-12 -39 -25 -58 -43 -67 -29 -14 -835 -17 -857 -3 -18 11 -16 27 8 92 12 34
29 59 40 64 16 5 831 8 862 2z"/>
</g>
</svg>
